<svg xmlns="http://www.w3.org/2000/svg" viewBox="0 0 100 100" width="200" height="200">
<g fill="#6c6659"><circle cx="50" cy="50" r="30"/><rect x="43" y="4" width="14" height="22" rx="3" transform="rotate(0 50 50)"/><rect x="43" y="4" width="14" height="22" rx="3" transform="rotate(45 50 50)"/><rect x="43" y="4" width="14" height="22" rx="3" transform="rotate(90 50 50)"/><rect x="43" y="4" width="14" height="22" rx="3" transform="rotate(135 50 50)"/><rect x="43" y="4" width="14" height="22" rx="3" transform="rotate(180 50 50)"/><rect x="43" y="4" width="14" height="22" rx="3" transform="rotate(225 50 50)"/><rect x="43" y="4" width="14" height="22" rx="3" transform="rotate(270 50 50)"/><rect x="43" y="4" width="14" height="22" rx="3" transform="rotate(315 50 50)"/></g><circle cx="50" cy="50" r="12" fill="#56494a"/>
</svg>